<svg viewBox="0 0 131 226" xmlns="http://www.w3.org/2000/svg">
<path d="M21.8388 4.16117C16.9573 -0.720388 9.04272 -0.720388 4.16117 4.16117C-0.720388 9.04272 -0.720388 16.9573 4.16117 21.8388L21.8388 4.16117ZM113 113L121.839 121.839L130.678 113L121.839 104.161L113 113ZM4.16117 204.161C-0.720388 209.043 -0.720388 216.957 4.16117 221.839C9.04272 226.72 16.9573 226.72 21.8388 221.839L4.16117 204.161ZM4.16117 21.8388L104.161 121.839L121.839 104.161L21.8388 4.16117L4.16117 21.8388ZM104.161 104.161L4.16117 204.161L21.8388 221.839L121.839 121.839L104.161 104.161Z"/>
</svg>
