<svg viewBox="0 0 21 23" xmlns="http://www.w3.org/2000/svg">
<path d="M17.9087 0.272827H2.81111C1.53795 0.272827 0.501404 1.31291 0.501404 2.60172V17.8865C0.501404 19.1753 1.53795 20.2154 2.81111 20.2154H15.5877L14.9906 18.1239L16.4327 19.4692L17.796 20.7354L20.2184 22.8834V2.60172C20.2184 1.31291 19.1818 0.272827 17.9087 0.272827ZM13.5597 15.0375C13.5597 15.0375 13.1541 14.5514 12.8161 14.1218C14.292 13.7035 14.8554 12.7765 14.8554 12.7765C14.3934 13.0817 13.954 13.2965 13.5597 13.4435C12.9963 13.6809 12.4555 13.8392 11.926 13.9296C10.8444 14.1331 9.85289 14.0766 9.00787 13.9183C8.36566 13.794 7.81359 13.6131 7.35165 13.4322C7.09251 13.3304 6.81084 13.2061 6.52917 13.0478C6.49537 13.0252 6.46157 13.0139 6.42776 12.9913C6.40523 12.98 6.39396 12.9687 6.3827 12.9574C6.17989 12.8443 6.06723 12.7652 6.06723 12.7652C6.06723 12.7652 6.60803 13.6696 8.03892 14.0992C7.70092 14.5288 7.28405 15.0375 7.28405 15.0375C4.79407 14.9584 3.84766 13.3191 3.84766 13.3191C3.84766 9.67884 5.47008 6.72815 5.47008 6.72815C7.09251 5.50718 8.63607 5.5411 8.63607 5.5411L8.74874 5.67676C6.7207 6.26464 5.78555 7.15775 5.78555 7.15775C5.78555 7.15775 6.03342 7.02209 6.4503 6.8299C7.65585 6.29855 8.61353 6.15158 9.00787 6.11767C9.07547 6.10636 9.13181 6.09506 9.19941 6.09506C9.88669 6.00461 10.6641 5.982 11.4753 6.07245C12.5457 6.1968 13.6949 6.51335 14.8666 7.15775C14.8666 7.15775 13.9766 6.30986 12.0612 5.72198L12.2189 5.5411C12.2189 5.5411 13.7625 5.50718 15.3849 6.72815C15.3849 6.72815 17.0073 9.67884 17.0073 13.3191C17.0073 13.3191 16.0497 14.9584 13.5597 15.0375ZM8.32059 9.75797C7.67838 9.75797 7.17138 10.3232 7.17138 11.0129C7.17138 11.7025 7.68965 12.2677 8.32059 12.2677C8.9628 12.2677 9.46981 11.7025 9.46981 11.0129C9.48108 10.3232 8.9628 9.75797 8.32059 9.75797ZM12.433 9.75797C11.7908 9.75797 11.2838 10.3232 11.2838 11.0129C11.2838 11.7025 11.802 12.2677 12.433 12.2677C13.0752 12.2677 13.5822 11.7025 13.5822 11.0129C13.5822 10.3232 13.0752 9.75797 12.433 9.75797Z"/>
</svg>
